<svg xmlns="http://www.w3.org/2000/svg" viewBox="0 0 166.41 36.08"><defs><style>.cls-1{fill:#fff;}.cls-2{fill:#e94f1c;}</style></defs><title>litres</title><g id="Layer_2" data-name="Layer 2"><g id="Layer_1-2" data-name="Layer 1"><path class="cls-1" d="M21.88,6.58H14.45c-.13,3.15-.28,6-.45,8.62s-.39,4.92-.67,7a38.66,38.66,0,0,1-1.12,5.51,16.53,16.53,0,0,1-1.8,4.13,7.48,7.48,0,0,1-1.57,1.9A8.43,8.43,0,0,1,7,34.93a7.59,7.59,0,0,1-1.87.62,9.07,9.07,0,0,1-1.72.18,8.57,8.57,0,0,1-1.92-.18A7.19,7.19,0,0,1,0,35l.75-5.88a3.19,3.19,0,0,0,.59.15,4,4,0,0,0,.6.05A3.33,3.33,0,0,0,3.51,29a3.22,3.22,0,0,0,1.32-1.34,10.51,10.51,0,0,0,1.3-3.22,45.86,45.86,0,0,0,1-5.4c.28-2.2.51-4.81.67-7.85S8.05,4.55,8.12.5H28.7V35.38H21.88Z"/><polygon class="cls-1" points="48.91 24.02 49.16 20.48 49.01 20.48 46.87 24.12 38 35.38 33.91 35.38 33.91 10.46 40.39 10.46 40.39 22.32 40.09 25.71 40.29 25.71 42.33 22.18 51.3 10.46 55.39 10.46 55.39 35.38 48.91 35.38 48.91 24.02"/><polygon class="cls-1" points="79.9 16.2 72.97 16.2 72.97 35.38 66.3 35.38 66.3 16.2 59.17 16.2 59.17 10.46 79.9 10.46 79.9 16.2"/><path class="cls-2" d="M84.15.85A46,46,0,0,1,88.76.22c1.68-.14,3.35-.22,5-.22A32.87,32.87,0,0,1,99,.42a13.13,13.13,0,0,1,4.71,1.7,9.75,9.75,0,0,1,3.41,3.54,11.64,11.64,0,0,1,1.32,5.9,12.16,12.16,0,0,1-1.15,5.56,10.46,10.46,0,0,1-3,3.71,12.3,12.3,0,0,1-4.3,2.09,19.45,19.45,0,0,1-5,.65h-.8l-1.15,0c-.4,0-.79,0-1.17-.07a8.21,8.21,0,0,1-.82-.1v12H84.15V.85Zm10.17,5A18.83,18.83,0,0,0,92.43,6,12.4,12.4,0,0,0,91,6.13V17.44a5.21,5.21,0,0,0,.6.1l.85.08.87,0h.62a14,14,0,0,0,2.67-.25A6.37,6.37,0,0,0,99,16.47a4.74,4.74,0,0,0,1.67-1.87,6.75,6.75,0,0,0,.62-3.14,5.49,5.49,0,0,0-.59-2.71A4.92,4.92,0,0,0,99.08,7a6.25,6.25,0,0,0-2.22-.9,12.65,12.65,0,0,0-2.54-.25"/><path class="cls-2" d="M130.64,33.24a12.8,12.8,0,0,1-4.06,2,18,18,0,0,1-5.45.82q-6,0-8.82-3.52t-2.79-9.64q0-6.57,3.14-9.86t8.82-3.29a13.34,13.34,0,0,1,3.68.5,8.57,8.57,0,0,1,3.19,1.64A8.1,8.1,0,0,1,130.6,15a12.19,12.19,0,0,1,.84,4.83q0,1.05-.12,2.25c-.09.79-.21,1.62-.38,2.49h-15a7.32,7.32,0,0,0,1.73,4.73q1.47,1.59,4.74,1.59a11.52,11.52,0,0,0,3.65-.62,24.31,24.31,0,0,0,2.65-1.05Zm-9.23-18.39c-2,.06-3,.57-3.81,1.56a7.12,7.12,0,0,0-1.49,4l9.3.09a6.36,6.36,0,0,0-.7-4.14,3.77,3.77,0,0,0-3.3-1.54"/><path class="cls-2" d="M152.5,15.28a21.62,21.62,0,0,0-3.54-.4c-4.45,0-7.34,2.54-7.34,8.16,0,5.27,2.2,7.88,6.85,7.88a44.4,44.4,0,0,0,4.43-.41l.89,4.5a22.07,22.07,0,0,1-6.5,1c-9,0-12.36-6.6-12.36-13.29s3.91-12.8,12.9-12.8a23.45,23.45,0,0,1,5.62.68Z"/><path class="cls-2" d="M166.41,13.89a3.68,3.68,0,1,1-3.68-3.67,3.68,3.68,0,0,1,3.68,3.67"/><path class="cls-2" d="M166.41,32.07a3.68,3.68,0,1,1-3.68-3.68,3.68,3.68,0,0,1,3.68,3.68"/></g></g></svg>