<?xml version="1.0" encoding="utf-8"?>
<!-- Generator: Adobe Illustrator 21.1.0, SVG Export Plug-In . SVG Version: 6.00 Build 0)  -->
<svg version="1.1" id="Слой_1" xmlns="http://www.w3.org/2000/svg" xmlns:xlink="http://www.w3.org/1999/xlink" x="0px" y="0px"
	 viewBox="8.6 0.8 282.9 83.1" enable-background="new 8.6 0.8 282.9 83.1" xml:space="preserve">
<g>
	<rect x="71.9" y="26.8" fill="#ffffff" width="4.7" height="55"/>
	<circle fill="#ffffff" cx="74.2" cy="12.7" r="3.8"/>
	<path fill="#ffffff" d="M139.9,81.8c0,0-3.2-5-3.2-10.1V4.5L132,5.2v26.4c-2.7-3-7.3-6.4-14.4-6.4c-8.8,0-22.1,7.9-22.1,29.6
		c0,21.4,11.3,29,21.5,29c5.9,0,11.8-3.5,15.3-9.6c0.9,5.1,4.2,8.5,4.3,8.7L139.9,81.8z M117.6,79.6c-13,0-17.6-13.2-17.6-24.9
		c0-8.5,4.3-25.6,17.6-25.5c8.8,0,13.4,7,14.3,8.6v25.4C131.1,73.2,124.2,79.6,117.6,79.6z"/>
	<path fill="#ffffff" d="M176.1,83.7c-10.2,0-22.1-7.6-22.1-29c0-21.7,13.3-29.6,22.1-29.6c6.4,0,11.5,2.1,15.2,6.1
		c7.2,7.9,6.1,20.6,6,21.1l-0.2,2.1h-38.6c0,0.1,0,0.2,0,0.3c0,11.7,4.6,24.9,17.6,24.9c8.5,0,16.4-5.4,16.5-5.4l2.1,2.9
		C194.3,77.4,185.3,83.7,176.1,83.7z M158.9,50.3h33.9c0-5.1-0.7-21.2-16.6-21.2C163.5,29.1,158.9,44,158.9,50.3z"/>
	<path fill="#ffffff" d="M230.2,24.9c-5.2,0-10,3.4-12.8,10c-0.7-5.1-3.3-8.1-3.4-8.3l-3.2,1.2c0.1,0,2.1,4.3,2.1,9.4v44.5h4.7V49.9
		c0-11.5,5.2-20.3,12.1-20.3c4.9,0,7.5,2.8,7.5,2.8l2.1-4.7C239.1,27.7,237.1,24.9,230.2,24.9z"/>
	<path fill="#ffffff" d="M268.1,83.9c-13.5,0-23.1-11.3-23.1-29.5s9.6-29.5,23.1-29.5c13.5,0,23.4,11.5,23.4,29.4
		C291.5,72.4,281.7,83.9,268.1,83.9z M268.1,29.3c-12.9,0-18.4,13.3-18.4,25.3s5.5,25.4,18.4,25.4c12.9,0,18.7-13.4,18.7-25.5
		C286.8,42.5,281,29.3,268.1,29.3z"/>
	<g>
		<path fill="#ffffff" d="M58.2,77.2c-0.9-0.1-1.9-0.4-2.8-0.9c-1.4-0.7-2.7-1.7-3.8-2.9c-0.7-0.8-1.4-1.6-2.1-2.6L33.7,46.8
			c-0.1-0.1-0.1-0.2-0.2-0.3c8.3-2.8,14.2-10.3,14.2-19.1c0-11.2-9.6-20.3-21.5-20.3v0l-12.9,0H8.6v74.5h4.7V47.7h12.4
			c2.4,0.1,4,2,5.3,3.8l15.9,24.1c3,4.3,6.3,6.4,9.9,6.4c0.3,0,0.6,0,0.8,0l1-4.8C58.5,77.2,58.4,77.2,58.2,77.2z M26.2,43L26.2,43
			l-10.5,0h-2.4V11.8h0.1h2.3h10.5v0c2.3,0,4.5,0.4,6.6,1.3c2,0.8,3.8,1.9,5.4,3.4c3.1,2.9,4.8,6.8,4.8,10.9s-1.7,8-4.8,10.9
			c-1.5,1.5-3.3,2.6-5.4,3.4C30.7,42.6,28.5,43,26.2,43z"/>
	</g>
	<polygon fill="#EE7D00" points="271.5,18.5 268.9,17.1 275.8,0.8 280.1,2.7 	"/>
</g>
</svg>
